<svg width="883" height="613" viewBox="0 0 883 613" fill="none" xmlns="http://www.w3.org/2000/svg">
<path d="M89.5599 172.681C73.7199 172.681 59.1599 169.001 45.8799 161.641C32.7599 154.281 22.2799 144.041 14.4399 130.921C6.75989 117.641 2.91989 102.761 2.91989 86.2811C2.91989 69.8011 6.75989 55.0011 14.4399 41.8811C22.2799 28.7611 32.7599 18.5211 45.8799 11.1611C59.1599 3.80109 73.7199 0.121094 89.5599 0.121094C105.4 0.121094 119.88 3.80109 133 11.1611C146.28 18.5211 156.68 28.7611 164.2 41.8811C171.88 55.0011 175.72 69.8011 175.72 86.2811C175.72 102.761 171.88 117.641 164.2 130.921C156.52 144.041 146.12 154.281 133 161.641C119.88 169.001 105.4 172.681 89.5599 172.681ZM89.5599 135.241C103 135.241 113.72 130.761 121.72 121.801C129.88 112.841 133.96 101.001 133.96 86.2811C133.96 71.4011 129.88 59.5611 121.72 50.7611C113.72 41.8011 103 37.3211 89.5599 37.3211C75.9599 37.3211 65.0799 41.7211 56.9199 50.5211C48.9199 59.3211 44.9199 71.2411 44.9199 86.2811C44.9199 101.161 48.9199 113.081 56.9199 122.041C65.0799 130.841 75.9599 135.241 89.5599 135.241Z" fill="white"/>
<path d="M339.672 171.001H298.632L229.992 67.0811V171.001H188.952V2.52109H229.992L298.632 106.921V2.52109H339.672V171.001Z" fill="white"/>
<path d="M400.861 35.4011V69.4811H455.82V101.161H400.861V138.121H463.021V171.001H359.82V2.52109H463.021V35.4011H400.861Z" fill="white"/>
<path d="M200.68 222.521V391.001H159.64V289.961L121.96 391.001H88.8399L50.9199 289.721V391.001H9.87989V222.521H58.3599L105.64 339.161L152.44 222.521H200.68Z" fill="white"/>
<path d="M261.632 222.521V391.001H220.592V222.521H261.632Z" fill="white"/>
<path d="M322.814 359.321H376.574V391.001H281.774V222.521H322.814V359.321Z" fill="white"/>
<path d="M427.589 359.321H481.349V391.001H386.549V222.521H427.589V359.321Z" fill="white"/>
<path d="M532.364 222.521V391.001H491.324V222.521H532.364Z" fill="white"/>
<path d="M632.185 392.681C616.345 392.681 601.785 389.001 588.505 381.641C575.385 374.281 564.905 364.041 557.065 350.921C549.385 337.641 545.545 322.761 545.545 306.281C545.545 289.801 549.385 275.001 557.065 261.881C564.905 248.761 575.385 238.521 588.505 231.161C601.785 223.801 616.345 220.121 632.185 220.121C648.025 220.121 662.505 223.801 675.625 231.161C688.905 238.521 699.305 248.761 706.825 261.881C714.505 275.001 718.345 289.801 718.345 306.281C718.345 322.761 714.505 337.641 706.825 350.921C699.145 364.041 688.745 374.281 675.625 381.641C662.505 389.001 648.025 392.681 632.185 392.681ZM632.185 355.241C645.625 355.241 656.345 350.761 664.345 341.801C672.505 332.841 676.585 321.001 676.585 306.281C676.585 291.401 672.505 279.561 664.345 270.761C656.345 261.801 645.625 257.321 632.185 257.321C618.585 257.321 607.705 261.721 599.545 270.521C591.545 279.321 587.545 291.241 587.545 306.281C587.545 321.161 591.545 333.081 599.545 342.041C607.705 350.841 618.585 355.241 632.185 355.241Z" fill="white"/>
<path d="M882.297 391.001H841.257L772.617 287.081V391.001H731.577V222.521H772.617L841.257 326.921V222.521H882.297V391.001Z" fill="white"/>
<path d="M131.08 442.521V475.401H86.4399V611.001H45.3999V475.401H0.759888V442.521H131.08Z" fill="white"/>
<path d="M227.997 611.001L192.957 547.401H183.117V611.001H142.077V442.521H210.957C224.237 442.521 235.517 444.841 244.797 449.481C254.237 454.121 261.277 460.521 265.917 468.681C270.557 476.681 272.877 485.641 272.877 495.561C272.877 506.761 269.677 516.761 263.277 525.561C257.037 534.361 247.757 540.601 235.437 544.281L274.317 611.001H227.997ZM183.117 518.361H208.557C216.077 518.361 221.677 516.521 225.357 512.841C229.197 509.161 231.117 503.961 231.117 497.241C231.117 490.841 229.197 485.801 225.357 482.121C221.677 478.441 216.077 476.601 208.557 476.601H183.117V518.361Z" fill="white"/>
<path d="M330.079 475.401V509.481H385.039V541.161H330.079V578.121H392.239V611.001H289.039V442.521H392.239V475.401H330.079Z" fill="white"/>
<path d="M450.323 475.401V509.481H505.283V541.161H450.323V578.121H512.483V611.001H409.283V442.521H512.483V475.401H450.323Z" fill="white"/>
<path d="M590.487 612.681C578.167 612.681 567.127 610.681 557.367 606.681C547.607 602.681 539.767 596.761 533.847 588.921C528.087 581.081 525.047 571.641 524.727 560.601H568.407C569.047 566.841 571.207 571.641 574.887 575.001C578.567 578.201 583.367 579.801 589.287 579.801C595.367 579.801 600.167 578.441 603.687 575.721C607.207 572.841 608.967 568.921 608.967 563.961C608.967 559.801 607.527 556.361 604.647 553.641C601.927 550.921 598.487 548.681 594.327 546.921C590.327 545.161 584.567 543.161 577.047 540.921C566.167 537.561 557.287 534.201 550.407 530.841C543.527 527.481 537.607 522.521 532.647 515.961C527.687 509.401 525.207 500.841 525.207 490.281C525.207 474.601 530.887 462.361 542.247 453.561C553.607 444.601 568.407 440.121 586.647 440.121C605.207 440.121 620.167 444.601 631.527 453.561C642.887 462.361 648.967 474.681 649.767 490.521H605.367C605.047 485.081 603.047 480.841 599.367 477.801C595.687 474.601 590.967 473.001 585.207 473.001C580.247 473.001 576.247 474.361 573.207 477.081C570.167 479.641 568.647 483.401 568.647 488.361C568.647 493.801 571.207 498.041 576.327 501.081C581.447 504.121 589.447 507.401 600.327 510.921C611.207 514.601 620.007 518.121 626.727 521.481C633.607 524.841 639.527 529.721 644.487 536.121C649.447 542.521 651.927 550.761 651.927 560.841C651.927 570.441 649.447 579.161 644.487 587.001C639.687 594.841 632.647 601.081 623.367 605.721C614.087 610.361 603.127 612.681 590.487 612.681Z" fill="white"/>
</svg>
